<?xml version="1.0" encoding="UTF-8" standalone="no"?>
<svg
   xmlns:dc="http://purl.org/dc/elements/1.1/"
   xmlns:cc="http://creativecommons.org/ns#"
   xmlns:rdf="http://www.w3.org/1999/02/22-rdf-syntax-ns#"
   xmlns:svg="http://www.w3.org/2000/svg"
   xmlns="http://www.w3.org/2000/svg"
   xmlns:sodipodi="http://sodipodi.sourceforge.net/DTD/sodipodi-0.dtd"
   xmlns:inkscape="http://www.inkscape.org/namespaces/inkscape"
   width="256"
   height="256"
   viewBox="0 0 67.733332 67.733335"
   version="1.1"
   id="svg856"
   inkscape:version="1.0.2-2 (e86c870879, 2021-01-15)"
   sodipodi:docname="folder-search-01.svg"
   inkscape:export-filename="I:\Storage\Projects\Icons\Vector\doc-01x256.png"
   inkscape:export-xdpi="600"
   inkscape:export-ydpi="600">
  <defs
     id="defs850" />
  <sodipodi:namedview
     id="base"
     pagecolor="#ffffff"
     bordercolor="#666666"
     borderopacity="1.0"
     inkscape:pageopacity="0.0"
     inkscape:pageshadow="2"
     inkscape:zoom="3.2497449"
     inkscape:cx="64.085568"
     inkscape:cy="130.86272"
     inkscape:document-units="mm"
     inkscape:current-layer="layer1"
     inkscape:document-rotation="0"
     showgrid="false"
     units="px"
     inkscape:window-width="2560"
     inkscape:window-height="1377"
     inkscape:window-x="-8"
     inkscape:window-y="-8"
     inkscape:window-maximized="1" />
  <metadata
     id="metadata853">
    <rdf:RDF>
      <cc:Work
         rdf:about="">
        <dc:format>image/svg+xml</dc:format>
        <dc:type
           rdf:resource="http://purl.org/dc/dcmitype/StillImage" />
        <dc:title></dc:title>
      </cc:Work>
    </rdf:RDF>
  </metadata>
  <g
     inkscape:label="Layer 1"
     inkscape:groupmode="layer"
     id="layer1">
    <path
       id="rect837"
       style="color:#000000;font-style:normal;font-variant:normal;font-weight:normal;font-stretch:normal;font-size:medium;line-height:normal;font-family:sans-serif;font-variant-ligatures:normal;font-variant-position:normal;font-variant-caps:normal;font-variant-numeric:normal;font-variant-alternates:normal;font-variant-east-asian:normal;font-feature-settings:normal;font-variation-settings:normal;text-indent:0;text-align:start;text-decoration:none;text-decoration-line:none;text-decoration-style:solid;text-decoration-color:#000000;letter-spacing:normal;word-spacing:normal;text-transform:none;writing-mode:lr-tb;direction:ltr;text-orientation:mixed;dominant-baseline:auto;baseline-shift:baseline;text-anchor:start;white-space:normal;shape-padding:0;shape-margin:0;inline-size:0;clip-rule:nonzero;display:inline;overflow:visible;visibility:visible;opacity:1;isolation:auto;mix-blend-mode:normal;color-interpolation:sRGB;color-interpolation-filters:linearRGB;solid-color:#000000;solid-opacity:1;vector-effect:none;fill:#e6e6e6;fill-opacity:1;fill-rule:nonzero;stroke:none;stroke-width:3.77953;stroke-linecap:butt;stroke-linejoin:round;stroke-miterlimit:4;stroke-dasharray:none;stroke-dashoffset:0;stroke-opacity:1;color-rendering:auto;image-rendering:auto;shape-rendering:auto;text-rendering:auto;enable-background:accumulate;stop-color:#000000;stop-opacity:1"
       d="M 48.912109 37.611328 C 32.760849 37.611328 19.605469 50.765236 19.605469 66.916016 L 19.605469 99.839844 L 19.605469 146.30859 L 19.605469 184.00781 L 29.609375 174.06836 L 29.609375 146.30859 L 29.609375 99.839844 L 29.609375 66.916016 C 29.609375 56.131757 38.128339 47.605469 48.912109 47.605469 L 96.488281 47.605469 L 125.47656 78.933594 A 5.0004934 5.0004934 0 0 0 129.14648 80.537109 L 207.08398 80.537109 C 217.86824 80.537109 226.39453 89.056081 226.39453 99.839844 L 226.39453 189.08008 C 226.39453 199.86385 217.86776 208.39062 207.08398 208.39062 L 64.490234 208.39062 L 54.423828 218.39258 L 207.08398 218.39258 C 223.23525 218.39258 236.39062 205.23134 236.39062 189.08008 L 236.39062 99.839844 C 236.39062 83.688588 223.23477 70.533203 207.08398 70.533203 L 131.33203 70.533203 L 102.3418 39.212891 A 5.0004934 5.0004934 0 0 0 98.673828 37.611328 L 48.912109 37.611328 z "
       transform="scale(0.26458333)" />
    <path
       id="path841"
       style="fill:#e6e6e6;stroke-width:2.14873;stroke-linejoin:round"
       d="m 35.662727,27.091057 a 12.534908,12.534908 0 0 0 -17.661044,0.06588 12.534908,12.534908 0 0 0 -2.213491,14.729999 L 2.1012852,55.573846 c -1.44335719,1.443355 -1.44365409,3.767355 -2.983e-4,5.210711 1.4433564,1.443357 3.7673542,1.443058 5.2107099,-2.98e-4 L 20.998606,47.097351 a 12.534908,12.534908 0 0 0 14.73,-2.213491 12.534908,12.534908 0 0 0 0,-17.726923 12.534908,12.534908 0 0 0 -0.06588,-0.06588 z m -2.512917,2.536657 a 8.9643584,8.9643584 0 0 1 0.05401,0.05401 8.9643584,8.9643584 0 0 1 0,12.677349 8.9643584,8.9643584 0 0 1 -12.677349,0 8.9643584,8.9643584 0 0 1 0,-12.677349 8.9643584,8.9643584 0 0 1 12.623339,-0.05401 z" />
  </g>
</svg>
