<?xml version="1.0" encoding="UTF-8" standalone="no"?>
<svg
   xmlns:dc="http://purl.org/dc/elements/1.1/"
   xmlns:cc="http://creativecommons.org/ns#"
   xmlns:rdf="http://www.w3.org/1999/02/22-rdf-syntax-ns#"
   xmlns:svg="http://www.w3.org/2000/svg"
   xmlns="http://www.w3.org/2000/svg"
   xmlns:sodipodi="http://sodipodi.sourceforge.net/DTD/sodipodi-0.dtd"
   xmlns:inkscape="http://www.inkscape.org/namespaces/inkscape"
   width="256"
   height="256"
   viewBox="0 0 67.733332 67.733335"
   version="1.1"
   id="svg839"
   inkscape:version="1.0.2-2 (e86c870879, 2021-01-15)"
   sodipodi:docname="magnifying-glass-01.svg">
  <defs
     id="defs833" />
  <sodipodi:namedview
     id="base"
     pagecolor="#ffffff"
     bordercolor="#666666"
     borderopacity="1.0"
     inkscape:pageopacity="0.0"
     inkscape:pageshadow="2"
     inkscape:zoom="2.8284271"
     inkscape:cx="130.96416"
     inkscape:cy="144.3134"
     inkscape:document-units="mm"
     inkscape:current-layer="layer1"
     inkscape:document-rotation="0"
     showgrid="false"
     units="px"
     inkscape:window-width="2560"
     inkscape:window-height="1377"
     inkscape:window-x="-8"
     inkscape:window-y="-8"
     inkscape:window-maximized="1" />
  <metadata
     id="metadata836">
    <rdf:RDF>
      <cc:Work
         rdf:about="">
        <dc:format>image/svg+xml</dc:format>
        <dc:type
           rdf:resource="http://purl.org/dc/dcmitype/StillImage" />
        <dc:title></dc:title>
      </cc:Work>
    </rdf:RDF>
  </metadata>
  <g
     inkscape:label="Layer 1"
     inkscape:groupmode="layer"
     id="layer1">
    <path
       id="path841"
       style="fill:#e6e6e6;stroke-width:2.96005;stroke-linejoin:round"
       d="m 55.155038,12.396955 a 17.267847,17.267847 0 0 0 -24.329513,0.09075 17.267847,17.267847 0 0 0 -3.049262,20.291764 L 8.9214432,51.634294 c -1.9883403,1.988339 -1.9887498,5.189836 -4.11e-4,7.178175 1.9883408,1.988341 5.1898358,1.987929 7.1781748,-4.11e-4 L 34.954028,39.957239 a 17.267847,17.267847 0 0 0 20.291765,-3.049262 17.267847,17.267847 0 0 0 -10e-7,-24.420268 17.267847,17.267847 0 0 0 -0.09075,-0.09075 z m -3.461746,3.494449 a 12.349127,12.349127 0 0 1 0.0744,0.0744 12.349127,12.349127 0 0 1 0,17.464072 12.349127,12.349127 0 0 1 -17.464072,0 12.349127,12.349127 0 0 1 0,-17.464072 12.349127,12.349127 0 0 1 17.389669,-0.0744 z" />
  </g>
</svg>
