<?xml version="1.0" encoding="UTF-8" standalone="no"?>
<svg
   xmlns:dc="http://purl.org/dc/elements/1.1/"
   xmlns:cc="http://creativecommons.org/ns#"
   xmlns:rdf="http://www.w3.org/1999/02/22-rdf-syntax-ns#"
   xmlns:svg="http://www.w3.org/2000/svg"
   xmlns="http://www.w3.org/2000/svg"
   xmlns:sodipodi="http://sodipodi.sourceforge.net/DTD/sodipodi-0.dtd"
   xmlns:inkscape="http://www.inkscape.org/namespaces/inkscape"
   width="256"
   height="256"
   viewBox="0 0 67.733332 67.733335"
   version="1.1"
   id="svg8"
   inkscape:version="1.0.2-2 (e86c870879, 2021-01-15)"
   sodipodi:docname="pin-01.svg"
   inkscape:export-filename="I:\Storage\Projects\Icons\Vector\pin-01x256.png"
   inkscape:export-xdpi="600"
   inkscape:export-ydpi="600">
  <defs
     id="defs2" />
  <sodipodi:namedview
     id="base"
     pagecolor="#ffffff"
     bordercolor="#666666"
     borderopacity="1.0"
     inkscape:pageopacity="0.0"
     inkscape:pageshadow="2"
     inkscape:zoom="4"
     inkscape:cx="109.06719"
     inkscape:cy="144.565"
     inkscape:document-units="mm"
     inkscape:current-layer="layer1"
     inkscape:document-rotation="0"
     showgrid="false"
     units="px"
     inkscape:window-width="2560"
     inkscape:window-height="1377"
     inkscape:window-x="-8"
     inkscape:window-y="-8"
     inkscape:window-maximized="1" />
  <metadata
     id="metadata5">
    <rdf:RDF>
      <cc:Work
         rdf:about="">
        <dc:format>image/svg+xml</dc:format>
        <dc:type
           rdf:resource="http://purl.org/dc/dcmitype/StillImage" />
        <dc:title />
      </cc:Work>
    </rdf:RDF>
  </metadata>
  <g
     inkscape:label="Layer 1"
     inkscape:groupmode="layer"
     id="layer1">
    <path
       id="path835"
       style="fill:#e6e6e6;stroke-width:2.79486;stroke-linecap:round"
       inkscape:transform-center-x="4.8374449"
       d="M 121.18359 104.98438 L 11.484375 128 L 121.18359 151.01562 L 121.18359 104.98438 z M 118.70898 107.98828 L 118.70898 128.00195 L 16.443359 128.00195 L 16.433594 128 L 118.70898 107.98828 z "
       transform="scale(0.26458333)" />
    <path
       id="rect837"
       style="fill:#e6e6e6;stroke-width:1.97217;stroke-linecap:round"
       d="m 35.434356,17.67334 c -1.319212,0 -2.38125,1.062038 -2.38125,2.38125 v 27.624152 c 0,1.319212 1.062038,2.38125 2.38125,2.38125 h 0.727604 c 1.31921,0 2.38125,-1.062038 2.38125,-2.38125 V 20.05459 c 0,-1.319212 -1.06204,-2.38125 -2.38125,-2.38125 z m 0.175699,0.7953 h 0.376722 c 1.027702,0 1.855184,0.827479 1.855184,1.855184 v 13.544909 h -4.08709 V 20.323824 c 0,-1.027705 0.827479,-1.855184 1.855184,-1.855184 z"
       sodipodi:nodetypes="ssssssssssssccss" />
    <path
       id="rect839"
       style="fill:#e6e6e6;stroke-width:2.3597;stroke-linecap:round"
       d="m 39.533157,26.143107 v 15.44712 H 59.80944 v -15.44712 z m 0.748273,0.888835 h 18.779734 v 6.83524 H 40.28143 Z" />
    <path
       id="rect846"
       style="fill:#e6e6e6;stroke-width:1.34099;stroke-linecap:round"
       d="m 62.409105,22.789823 c -0.891667,0 -1.609719,0.718053 -1.609719,1.609721 v 18.934245 c 0,0.891667 0.718052,1.609719 1.609719,1.609719 h 0.675929 c 0.891667,0 1.609719,-0.718052 1.609719,-1.609719 V 24.399544 c 3e-6,-0.891668 -0.718052,-1.609721 -1.609719,-1.609721 z m 0.140044,0.607198 h 0.395841 c 0.658463,0 1.188558,0.530096 1.188558,1.188558 v 9.283154 h -2.772957 v -9.283154 c 0,-0.658462 0.530098,-1.188558 1.188558,-1.188558 z"
       sodipodi:nodetypes="sssssscsssssccss" />
  </g>
</svg>
