<?xml version="1.0" encoding="UTF-8" standalone="no"?>
<svg
   xmlns:dc="http://purl.org/dc/elements/1.1/"
   xmlns:cc="http://creativecommons.org/ns#"
   xmlns:rdf="http://www.w3.org/1999/02/22-rdf-syntax-ns#"
   xmlns:svg="http://www.w3.org/2000/svg"
   xmlns="http://www.w3.org/2000/svg"
   xmlns:sodipodi="http://sodipodi.sourceforge.net/DTD/sodipodi-0.dtd"
   xmlns:inkscape="http://www.inkscape.org/namespaces/inkscape"
   width="256"
   height="256"
   viewBox="0 0 67.733332 67.733335"
   version="1.1"
   id="svg8"
   inkscape:version="1.0.2-2 (e86c870879, 2021-01-15)"
   sodipodi:docname="pin-02.svg"
   inkscape:export-filename="I:\Storage\Projects\Icons\Vector\pin-02x256.png"
   inkscape:export-xdpi="600"
   inkscape:export-ydpi="600">
  <defs
     id="defs2" />
  <sodipodi:namedview
     id="base"
     pagecolor="#ffffff"
     bordercolor="#666666"
     borderopacity="1.0"
     inkscape:pageopacity="0.0"
     inkscape:pageshadow="2"
     inkscape:zoom="4"
     inkscape:cx="146.04406"
     inkscape:cy="139.9853"
     inkscape:document-units="mm"
     inkscape:current-layer="layer1"
     inkscape:document-rotation="0"
     showgrid="false"
     units="px"
     inkscape:window-width="2560"
     inkscape:window-height="1377"
     inkscape:window-x="-8"
     inkscape:window-y="-8"
     inkscape:window-maximized="1" />
  <metadata
     id="metadata5">
    <rdf:RDF>
      <cc:Work
         rdf:about="">
        <dc:format>image/svg+xml</dc:format>
        <dc:type
           rdf:resource="http://purl.org/dc/dcmitype/StillImage" />
        <dc:title />
      </cc:Work>
    </rdf:RDF>
  </metadata>
  <g
     inkscape:label="Layer 1"
     inkscape:groupmode="layer"
     id="layer1">
    <path
       id="path835"
       style="fill:#e6e6e6;stroke-width:2.79486;stroke-linecap:round"
       inkscape:transform-center-x="4.8374449"
       d="M 121.18359 104.98438 L 11.484375 128 L 121.18359 151.01562 L 121.18359 104.98438 z M 16.443359 127.99805 L 118.70898 127.99805 L 118.70898 128.00195 L 16.443359 128.00195 L 16.433594 128 L 16.443359 127.99805 z "
       transform="scale(0.26458333)" />
    <path
       id="rect837"
       style="fill:#e6e6e6;stroke-width:1.64619;stroke-linecap:round"
       d="m 35.354117,17.67334 c -0.919148,0 -1.659111,1.062038 -1.659111,2.38125 v 27.624152 c 0,1.319212 0.739963,2.38125 1.659111,2.38125 h 1.106074 c 0.919146,0 1.659112,-1.062038 1.659112,-2.38125 V 20.05459 c 0,-1.319212 -0.739966,-2.38125 -1.659112,-2.38125 z M 34.183953,33.8646 h 3.446762 v 0.0041 h -3.446762 z" />
    <path
       id="rect839"
       style="fill:#e6e6e6;stroke-width:2.3597;stroke-linecap:round"
       d="m 39.751151,26.143107 v 15.44712 h 20.276282 v -15.44712 z m 0.748273,7.723043 h 18.779733 v 0.001 H 40.499424 Z" />
    <path
       id="rect846"
       style="fill:#e6e6e6;stroke-width:1.22206;stroke-linecap:round"
       d="m 62.996128,22.789823 c -0.740515,0 -1.336847,0.718054 -1.336847,1.609721 v 18.934245 c 0,0.891667 0.596332,1.609719 1.336847,1.609719 h 0.890945 c 0.740516,0 1.336851,-0.718052 1.336847,-1.609719 V 24.399544 c 0,-0.891667 -0.596331,-1.609721 -1.336847,-1.609721 z M 62.125353,33.8646 h 2.632495 v 0.0041 h -2.632495 z" />
  </g>
</svg>
