<?xml version="1.0" encoding="UTF-8" standalone="no"?>
<svg
   xmlns:dc="http://purl.org/dc/elements/1.1/"
   xmlns:cc="http://creativecommons.org/ns#"
   xmlns:rdf="http://www.w3.org/1999/02/22-rdf-syntax-ns#"
   xmlns:svg="http://www.w3.org/2000/svg"
   xmlns="http://www.w3.org/2000/svg"
   xmlns:sodipodi="http://sodipodi.sourceforge.net/DTD/sodipodi-0.dtd"
   xmlns:inkscape="http://www.inkscape.org/namespaces/inkscape"
   width="256"
   height="256"
   viewBox="0 0 67.733332 67.733337"
   version="1.1"
   id="svg8"
   sodipodi:docname="pinmarker-03.svg"
   inkscape:version="1.0.2-2 (e86c870879, 2021-01-15)"
   inkscape:export-filename="I:\Storage\Projects\Icons\Vector\map-pin-01x256.png"
   inkscape:export-xdpi="600"
   inkscape:export-ydpi="600">
  <defs
     id="defs2" />
  <sodipodi:namedview
     id="base"
     pagecolor="#ffffff"
     bordercolor="#666666"
     borderopacity="1.0"
     inkscape:pageopacity="0.0"
     inkscape:pageshadow="2"
     inkscape:zoom="2"
     inkscape:cx="114.44287"
     inkscape:cy="138.66157"
     inkscape:document-units="mm"
     inkscape:current-layer="layer1"
     inkscape:document-rotation="0"
     showgrid="false"
     units="px"
     inkscape:window-width="2560"
     inkscape:window-height="1377"
     inkscape:window-x="-8"
     inkscape:window-y="-8"
     inkscape:window-maximized="1" />
  <metadata
     id="metadata5">
    <rdf:RDF>
      <cc:Work
         rdf:about="">
        <dc:format>image/svg+xml</dc:format>
        <dc:type
           rdf:resource="http://purl.org/dc/dcmitype/StillImage" />
        <dc:title />
      </cc:Work>
    </rdf:RDF>
  </metadata>
  <g
     inkscape:label="Layer 1"
     inkscape:groupmode="layer"
     id="layer1">
    <circle
       style="fill:#e6e6e6;stroke:none;stroke-width:2.64599;stroke-linejoin:round;stroke-miterlimit:4;stroke-dasharray:none;stroke-opacity:1"
       id="path898"
       cx="33.866665"
       cy="18.785416"
       r="17.72665" />
    <path
       id="circle900"
       style="fill:#e6e6e6;stroke:none;stroke-width:2.64599;stroke-linejoin:round;stroke-miterlimit:4;stroke-dasharray:none;stroke-opacity:1"
       d="M 50.366524,25.267708 33.86667,66.674567 17.366819,25.267708 Z"
       sodipodi:nodetypes="cccc" />
    <path
       id="circle903"
       style="fill:#cccccc;stroke:none;stroke-width:10.0006;stroke-linejoin:round;stroke-miterlimit:4;stroke-dasharray:none;stroke-opacity:1"
       d="M 128 4.0019531 L 128 251.99805 L 190.2168 95.859375 L 190.36133 95.5 L 190.35742 95.5 A 66.998362 66.998362 0 0 0 194.99805 71 A 66.998362 66.998362 0 0 0 128 4.0019531 z "
       transform="scale(0.26458333)" />
    <path
       id="path913"
       style="fill:#b3b3b3;stroke:none;stroke-width:2.64599;stroke-linejoin:round;stroke-miterlimit:4;stroke-dasharray:none;stroke-opacity:1"
       d="m 39.158331,18.785416 a 5.2916665,5.2916665 0 0 1 -5.291666,5.291666 5.2916665,5.2916665 0 0 1 -5.291667,-5.291666 5.2916665,5.2916665 0 0 1 5.291667,-5.291667 5.2916665,5.2916665 0 0 1 5.291666,5.291667 z" />
    <path
       id="circle915"
       style="fill:none;stroke:#b3b3b3;stroke-width:3.70028;stroke-linejoin:round;stroke-miterlimit:4;stroke-dasharray:none;stroke-opacity:1"
       d="M 44.597417,18.785416 A 10.730752,10.730752 0 0 1 33.866665,29.516168 10.730752,10.730752 0 0 1 23.135913,18.785416 10.730752,10.730752 0 0 1 33.866665,8.0546637 10.730752,10.730752 0 0 1 44.597417,18.785416 Z" />
    <path
       id="path851"
       style="fill:#cccccc;stroke:none;stroke-width:2.64599;stroke-linejoin:round;stroke-miterlimit:4;stroke-dasharray:none;stroke-opacity:1"
       d="m 33.865882,6.2053059 c -6.926321,0 -12.580109,5.6532741 -12.580109,12.5795941 0,6.926321 5.653788,12.582176 12.580109,12.582176 h 10e-4 V 27.66601 h -10e-4 c -4.926539,0 -8.878528,-3.954569 -8.878528,-8.88111 0,-4.926541 3.951989,-8.880595 8.878528,-8.880595 h 10e-4 V 6.2053059 Z m 10e-4,7.2884441 a 5.2916663,5.2916663 0 0 0 -5.291666,5.291666 5.2916663,5.2916663 0 0 0 5.291666,5.291667 z" />
  </g>
</svg>
