<?xml version="1.0" encoding="UTF-8" standalone="no"?>
<svg
   xmlns:dc="http://purl.org/dc/elements/1.1/"
   xmlns:cc="http://creativecommons.org/ns#"
   xmlns:rdf="http://www.w3.org/1999/02/22-rdf-syntax-ns#"
   xmlns:svg="http://www.w3.org/2000/svg"
   xmlns="http://www.w3.org/2000/svg"
   xmlns:sodipodi="http://sodipodi.sourceforge.net/DTD/sodipodi-0.dtd"
   xmlns:inkscape="http://www.inkscape.org/namespaces/inkscape"
   width="256"
   height="256"
   viewBox="0 0 67.733332 67.733335"
   version="1.1"
   id="svg8"
   inkscape:version="1.0.2-2 (e86c870879, 2021-01-15)"
   sodipodi:docname="trash-01.svg"
   inkscape:export-filename="I:\Storage\Projects\Icons\Vector\trash-01x256.png"
   inkscape:export-xdpi="600"
   inkscape:export-ydpi="600">
  <defs
     id="defs2" />
  <sodipodi:namedview
     id="base"
     pagecolor="#ffffff"
     bordercolor="#666666"
     borderopacity="1.0"
     inkscape:pageopacity="0.0"
     inkscape:pageshadow="2"
     inkscape:zoom="2.8284271"
     inkscape:cx="138.41197"
     inkscape:cy="122.48171"
     inkscape:document-units="mm"
     inkscape:current-layer="layer1"
     inkscape:document-rotation="0"
     showgrid="false"
     units="px"
     inkscape:window-width="2560"
     inkscape:window-height="1377"
     inkscape:window-x="-8"
     inkscape:window-y="-8"
     inkscape:window-maximized="1"
     inkscape:snap-midpoints="false"
     inkscape:snap-nodes="true" />
  <metadata
     id="metadata5">
    <rdf:RDF>
      <cc:Work
         rdf:about="">
        <dc:format>image/svg+xml</dc:format>
        <dc:type
           rdf:resource="http://purl.org/dc/dcmitype/StillImage" />
        <dc:title />
      </cc:Work>
    </rdf:RDF>
  </metadata>
  <g
     inkscape:label="Layer 1"
     inkscape:groupmode="layer"
     id="layer1">
    <path
       id="rect834"
       style="fill:#e6e6e6;fill-opacity:1;stroke:none;stroke-width:2.89376;stroke-linejoin:round;stroke-miterlimit:4;stroke-dasharray:none;stroke-opacity:1"
       d="m 16.188174,18.269584 v 10.743079 28.239018 c 0,2.86039 0.907521,3.99022 3.512638,3.99022 h 16.829014 4.802398 6.700294 c 2.605119,0 3.512641,-1.12983 3.512641,-3.99022 V 29.012663 18.269584 Z m 7.875885,4.774702 c 1.843613,0 3.327822,1.774597 3.327822,3.978918 v 25.465077 c 0,2.204321 -1.484209,3.978919 -3.327822,3.978919 -1.843615,0 -3.327823,-1.774598 -3.327823,-3.978919 V 27.023204 c 0,-2.204321 1.484208,-3.978918 3.327823,-3.978918 z m 9.802607,0 c 1.843615,0 3.327822,1.774597 3.327822,3.978918 v 25.465077 c 0,2.204321 -1.484207,3.978919 -3.327822,3.978919 -1.843614,0 -3.327822,-1.774598 -3.327822,-3.978919 V 27.023204 c 0,-2.204321 1.484208,-3.978918 3.327822,-3.978918 z m 9.802607,0 c 1.843615,0 3.327824,1.774597 3.327824,3.978918 v 25.465077 c 0,2.204321 -1.484209,3.978919 -3.327824,3.978919 -1.843614,0 -3.327822,-1.774598 -3.327822,-3.978919 V 27.023204 c 0,-2.204321 1.484208,-3.978918 3.327822,-3.978918 z" />
    <path
       id="rect836"
       style="fill:#e6e6e6;stroke:none;stroke-width:1.09378"
       d="m 42.872318,3.1977376 c -0.115258,4.26e-4 -0.231227,0.00661 -0.34675,0.018603 -6.023414,0.010578 -12.047947,-0.021173 -18.07073,0.015503 -1.974188,0.1387658 -3.548446,2.0458576 -3.368787,4.0069905 0,0.828208 0,4.1037909 0,4.9319989 h 3.926892 c 0.0019,-0.0097 0.0026,-2.4665495 0.0047,-2.4763349 0.104105,-0.8192209 -0.343934,-2.0100586 0.593763,-2.4665161 1.210659,-0.1895922 2.470031,-0.020976 3.698481,-0.078031 4.204919,0.011935 8.412863,-0.023736 12.615767,0.017571 0.981326,0.1965449 0.790805,1.3418687 0.789101,2.080493 0.01177,0.1579894 0.01855,2.764428 0.0181,2.922819 h 3.913454 C 46.66298,10.989975 46.684115,7.3611411 46.57236,6.1887705 46.257744,4.4588464 44.601188,3.191334 42.872329,3.1977386 Z"
       sodipodi:nodetypes="scccccccccccccs" />
    <rect
       style="fill:#e6e6e6;fill-opacity:1;stroke:none;stroke-width:2.18879;stroke-linejoin:round;stroke-miterlimit:4;stroke-dasharray:none;stroke-opacity:1"
       id="rect893"
       width="47.099651"
       height="5.1275601"
       x="10.316841"
       y="11.260429"
       ry="1.524501" />
  </g>
</svg>
